<svg xmlns="http://www.w3.org/2000/svg" xmlns:xlink="http://www.w3.org/1999/xlink" width="600" zoomAndPan="magnify" viewBox="0 0 450 149.999998" height="200" preserveAspectRatio="xMidYMid meet" version="1.0"><defs><g/><clipPath id="1d6d65e55c"><path d="M 0.441406 1 L 237 1 L 237 126 L 0.441406 126 Z M 0.441406 1 " clip-rule="nonzero"/></clipPath><clipPath id="ab7262fe2f"><path d="M 0.441406 29 L 78 29 L 78 110 L 0.441406 110 Z M 0.441406 29 " clip-rule="nonzero"/></clipPath><clipPath id="32976c7015"><path d="M 194 52 L 236.839844 52 L 236.839844 88 L 194 88 Z M 194 52 " clip-rule="nonzero"/></clipPath><clipPath id="9346070899"><rect x="0" width="237" y="0" height="125"/></clipPath><clipPath id="a6e801ca57"><path d="M 226 0 L 447.078125 0 L 447.078125 135.359375 L 226 135.359375 Z M 226 0 " clip-rule="nonzero"/></clipPath><clipPath id="9836cdaf44"><rect x="0" width="222" y="0" height="136"/></clipPath><clipPath id="3d8875b1c2"><path d="M 189 31 L 224 31 L 224 67 L 189 67 Z M 189 31 " clip-rule="nonzero"/></clipPath><clipPath id="59036cce99"><path d="M 188.988281 32.929688 L 221.683594 30.742188 L 223.992188 65.230469 L 191.292969 67.417969 Z M 188.988281 32.929688 " clip-rule="nonzero"/></clipPath><clipPath id="d234a0335f"><path d="M 205.335938 31.835938 L 207.480469 45.019531 L 215.679688 34.429688 L 209.65625 46.390625 L 222.480469 42.625 L 210.570312 48.730469 L 223.191406 53.253906 L 209.980469 51.230469 L 217.542969 62.285156 L 208.003906 52.816406 L 207.636719 66.234375 L 205.488281 52.984375 L 197.296875 63.640625 L 203.316406 51.679688 L 190.492188 55.441406 L 202.398438 49.277344 L 189.78125 44.816406 L 202.992188 46.835938 L 195.429688 35.785156 L 204.964844 45.1875 Z M 205.335938 31.835938 " clip-rule="nonzero"/></clipPath><clipPath id="21acb105f7"><path d="M 0.558594 0.679688 L 34.398438 0.679688 L 34.398438 35.238281 L 0.558594 35.238281 Z M 0.558594 0.679688 " clip-rule="nonzero"/></clipPath><clipPath id="f1fa0ca9ec"><path d="M -0.0117188 1.929688 L 32.683594 -0.257812 L 34.992188 34.230469 L 2.292969 36.417969 Z M -0.0117188 1.929688 " clip-rule="nonzero"/></clipPath><clipPath id="f61fbe433b"><path d="M 16.335938 0.835938 L 18.480469 14.019531 L 26.679688 3.429688 L 20.65625 15.390625 L 33.480469 11.625 L 21.570312 17.730469 L 34.191406 22.253906 L 20.980469 20.230469 L 28.542969 31.285156 L 19.003906 21.816406 L 18.636719 35.234375 L 16.488281 21.984375 L 8.296875 32.640625 L 14.316406 20.679688 L 1.492188 24.441406 L 13.398438 18.277344 L 0.78125 13.816406 L 13.992188 15.835938 L 6.429688 4.785156 L 15.964844 14.1875 Z M 16.335938 0.835938 " clip-rule="nonzero"/></clipPath><clipPath id="d5ceed7ae6"><rect x="0" width="35" y="0" height="36"/></clipPath><clipPath id="0a7471afe4"><rect x="0" width="448" y="0" height="136"/></clipPath></defs><g transform="matrix(1, 0, 0, 1, 1, -0.000000000000007527)"><g clip-path="url(#0a7471afe4)"><g clip-path="url(#1d6d65e55c)"><g transform="matrix(1, 0, 0, 1, -0.000000000000000222, 1)"><g clip-path="url(#9346070899)"><g clip-path="url(#ab7262fe2f)"><g fill="#372200" fill-opacity="1"><g transform="translate(4.233628, 87.473606)"><g><path d="M 11.3125 22.40625 C 8.976562 22.40625 6.695312 22.0625 4.46875 21.375 C 2.238281 20.6875 0.390625 19.488281 -1.078125 17.78125 C -2.546875 16.070312 -3.28125 13.640625 -3.28125 10.484375 C -3.28125 8.222656 -2.679688 6.351562 -1.484375 4.875 C -0.285156 3.40625 0.6875 2.671875 1.4375 2.671875 C 1.570312 2.671875 1.707031 2.738281 1.84375 2.875 C 1.226562 3.425781 0.734375 4.316406 0.359375 5.546875 C -0.015625 6.785156 -0.203125 8.085938 -0.203125 9.453125 C -0.203125 12.265625 0.738281 14.765625 2.625 16.953125 C 4.507812 19.148438 7.234375 20.25 10.796875 20.25 C 15.585938 20.25 19.882812 19.066406 23.6875 16.703125 C 27.488281 14.335938 30.945312 11.21875 34.0625 7.34375 C 37.1875 3.476562 40.117188 -0.710938 42.859375 -5.234375 C 44.160156 -7.359375 45.34375 -9.257812 46.40625 -10.9375 C 47.46875 -12.625 48.441406 -14.148438 49.328125 -15.515625 C 47.484375 -13.460938 45.34375 -11.304688 42.90625 -9.046875 C 40.476562 -6.785156 37.910156 -4.675781 35.203125 -2.71875 C 32.492188 -0.769531 29.71875 0.800781 26.875 2 C 24.03125 3.195312 21.238281 3.796875 18.5 3.796875 C 15.757812 3.796875 13.394531 2.972656 11.40625 1.328125 C 9.414062 -0.304688 8.421875 -3.179688 8.421875 -7.296875 C 8.421875 -11.128906 9.273438 -14.945312 10.984375 -18.75 C 12.703125 -22.5625 14.96875 -26.25 17.78125 -29.8125 C 13.394531 -30.351562 9.796875 -31.445312 6.984375 -33.09375 C 4.179688 -34.738281 2.78125 -37.140625 2.78125 -40.296875 C 2.78125 -42.484375 3.394531 -44.3125 4.625 -45.78125 C 5.851562 -47.257812 7.410156 -48.441406 9.296875 -49.328125 C 11.179688 -50.222656 13.203125 -50.910156 15.359375 -51.390625 C 17.523438 -51.867188 19.546875 -52.175781 21.421875 -52.3125 C 23.304688 -52.445312 24.800781 -52.515625 25.90625 -52.515625 C 26.25 -52.515625 27.050781 -52.5 28.3125 -52.46875 C 29.582031 -52.4375 30.953125 -52.367188 32.421875 -52.265625 C 33.898438 -52.160156 35.1875 -52.003906 36.28125 -51.796875 C 37.375 -51.597656 37.921875 -51.359375 37.921875 -51.078125 C 37.921875 -50.804688 37.679688 -50.671875 37.203125 -50.671875 C 36.316406 -50.671875 35.320312 -50.722656 34.21875 -50.828125 C 33.125 -50.929688 32.03125 -50.984375 30.9375 -50.984375 C 30.113281 -50.984375 29.289062 -50.984375 28.46875 -50.984375 C 27.644531 -50.984375 26.859375 -50.945312 26.109375 -50.875 C 24.734375 -50.8125 23.019531 -50.65625 20.96875 -50.40625 C 18.914062 -50.164062 16.875 -49.6875 14.84375 -48.96875 C 12.820312 -48.25 11.125 -47.1875 9.75 -45.78125 C 8.382812 -44.382812 7.703125 -42.484375 7.703125 -40.078125 C 7.703125 -37.546875 8.75 -35.578125 10.84375 -34.171875 C 12.9375 -32.765625 15.660156 -31.859375 19.015625 -31.453125 C 22.234375 -35.285156 25.894531 -38.828125 30 -42.078125 C 34.113281 -45.335938 38.3125 -48.164062 42.59375 -50.5625 C 46.882812 -52.96875 51.03125 -54.851562 55.03125 -56.21875 C 59.039062 -57.59375 62.554688 -58.28125 65.578125 -58.28125 C 67.566406 -58.28125 69.414062 -57.921875 71.125 -57.203125 C 72.832031 -56.484375 73.6875 -54.992188 73.6875 -52.734375 C 73.6875 -50.054688 72.640625 -47.550781 70.546875 -45.21875 C 68.460938 -42.894531 65.671875 -40.769531 62.171875 -38.84375 C 58.679688 -36.925781 54.773438 -35.265625 50.453125 -33.859375 C 46.140625 -32.460938 41.6875 -31.382812 37.09375 -30.625 C 32.507812 -29.875 28.128906 -29.5 23.953125 -29.5 L 23.53125 -29.5 C 20.59375 -25.726562 18.25 -21.800781 16.5 -17.71875 C 14.75 -13.644531 13.875 -9.691406 13.875 -5.859375 C 13.875 -3.046875 14.457031 -1.09375 15.625 0 C 16.789062 1.09375 18.226562 1.640625 19.9375 1.640625 C 21.582031 1.640625 23.347656 1.296875 25.234375 0.609375 C 27.117188 -0.0664062 28.914062 -0.898438 30.625 -1.890625 C 32.34375 -2.890625 33.785156 -3.835938 34.953125 -4.734375 C 37.691406 -6.859375 40.34375 -9.082031 42.90625 -11.40625 C 45.476562 -13.738281 47.773438 -15.929688 49.796875 -17.984375 C 51.816406 -20.035156 53.375 -21.710938 54.46875 -23.015625 C 55.84375 -24.804688 57.09375 -26.4375 58.21875 -27.90625 C 59.351562 -29.375 60.8125 -30.109375 62.59375 -30.109375 C 63.757812 -30.109375 64.34375 -29.597656 64.34375 -28.578125 C 64.34375 -27.753906 63.960938 -27.171875 63.203125 -26.828125 C 61.492188 -26.753906 59.898438 -26.1875 58.421875 -25.125 C 56.953125 -24.0625 55.84375 -22.609375 55.09375 -20.765625 C 54 -18.085938 52.898438 -15.34375 51.796875 -12.53125 C 50.703125 -9.726562 49.472656 -6.921875 48.109375 -4.109375 C 45.835938 0.617188 43.003906 5.003906 39.609375 9.046875 C 36.222656 13.085938 32.203125 16.320312 27.546875 18.75 C 22.890625 21.1875 17.476562 22.40625 11.3125 22.40625 Z M 24.765625 -31.140625 C 28.535156 -31.210938 32.546875 -31.640625 36.796875 -32.421875 C 41.046875 -33.210938 45.207031 -34.289062 49.28125 -35.65625 C 53.363281 -37.03125 57.066406 -38.625 60.390625 -40.4375 C 63.710938 -42.257812 66.363281 -44.25 68.34375 -46.40625 C 70.332031 -48.5625 71.328125 -50.769531 71.328125 -53.03125 C 71.328125 -54.613281 70.726562 -55.644531 69.53125 -56.125 C 68.332031 -56.601562 67.046875 -56.84375 65.671875 -56.84375 C 62.867188 -56.84375 59.71875 -56.171875 56.21875 -54.828125 C 52.726562 -53.492188 49.113281 -51.660156 45.375 -49.328125 C 41.644531 -47.003906 38 -44.28125 34.4375 -41.15625 C 30.875 -38.039062 27.648438 -34.703125 24.765625 -31.140625 Z M 24.765625 -31.140625 "/></g></g></g></g><g fill="#372200" fill-opacity="1"><g transform="translate(64.262108, 87.473606)"><g><path d="M 1.84375 0.109375 C -0.6875 0.109375 -1.953125 -1.332031 -1.953125 -4.21875 C -1.953125 -5.863281 -1.472656 -7.832031 -0.515625 -10.125 C 0.441406 -12.414062 1.878906 -14.832031 3.796875 -17.375 C 5.171875 -19.082031 6.847656 -20.910156 8.828125 -22.859375 C 10.816406 -24.816406 12.992188 -26.6875 15.359375 -28.46875 C 17.722656 -30.25 20.140625 -31.703125 22.609375 -32.828125 C 25.078125 -33.960938 27.476562 -34.53125 29.8125 -34.53125 C 30.832031 -34.53125 31.546875 -34.375 31.953125 -34.0625 C 32.367188 -33.757812 32.644531 -33.4375 32.78125 -33.09375 C 32.925781 -32.820312 32.945312 -32.613281 32.84375 -32.46875 C 32.738281 -32.332031 32.617188 -32.300781 32.484375 -32.375 C 32.203125 -32.507812 31.648438 -32.578125 30.828125 -32.578125 C 28.367188 -32.578125 25.441406 -31.394531 22.046875 -29.03125 C 18.648438 -26.664062 15.3125 -23.601562 12.03125 -19.84375 C 9.695312 -17.238281 7.773438 -14.679688 6.265625 -12.171875 C 4.765625 -9.671875 3.769531 -7.601562 3.28125 -5.96875 C 3.144531 -5.414062 3.078125 -4.929688 3.078125 -4.515625 C 3.078125 -3.554688 3.457031 -3.078125 4.21875 -3.078125 C 4.695312 -3.078125 5.347656 -3.300781 6.171875 -3.75 C 6.992188 -4.195312 8.054688 -4.96875 9.359375 -6.0625 C 11.410156 -7.84375 13.445312 -9.929688 15.46875 -12.328125 C 17.488281 -14.734375 19.492188 -17.1875 21.484375 -19.6875 C 23.472656 -22.1875 25.40625 -24.5 27.28125 -26.625 C 29.164062 -28.75 30.96875 -30.359375 32.6875 -31.453125 C 34.875 -32.890625 36.394531 -33.707031 37.25 -33.90625 C 38.113281 -34.113281 38.816406 -34.253906 39.359375 -34.328125 C 39.015625 -33.921875 38.257812 -32.960938 37.09375 -31.453125 C 35.9375 -29.941406 34.707031 -28.347656 33.40625 -26.671875 C 32.101562 -24.992188 31.039062 -23.609375 30.21875 -22.515625 C 28.988281 -20.734375 27.671875 -18.8125 26.265625 -16.75 C 24.859375 -14.695312 23.585938 -12.757812 22.453125 -10.9375 C 21.328125 -9.125 20.554688 -7.632812 20.140625 -6.46875 C 19.796875 -5.3125 19.625 -4.457031 19.625 -3.90625 C 19.625 -2.8125 20.070312 -2.265625 20.96875 -2.265625 C 21.582031 -2.265625 22.316406 -2.519531 23.171875 -3.03125 C 24.035156 -3.539062 24.910156 -4.140625 25.796875 -4.828125 C 26.960938 -5.785156 28.054688 -6.796875 29.078125 -7.859375 C 30.109375 -8.921875 31.171875 -10.101562 32.265625 -11.40625 C 32.546875 -11.40625 32.6875 -11.203125 32.6875 -10.796875 C 32.6875 -10.171875 32.546875 -9.691406 32.265625 -9.359375 C 31.378906 -8.328125 30.300781 -7.191406 29.03125 -5.953125 C 27.769531 -4.722656 26.519531 -3.628906 25.28125 -2.671875 C 24.394531 -1.921875 23.367188 -1.269531 22.203125 -0.71875 C 21.035156 -0.164062 19.90625 0.109375 18.8125 0.109375 C 17.226562 0.109375 16.128906 -0.265625 15.515625 -1.015625 C 14.898438 -1.773438 14.59375 -2.738281 14.59375 -3.90625 C 14.59375 -5.28125 14.898438 -6.769531 15.515625 -8.375 C 16.128906 -9.988281 16.816406 -11.515625 17.578125 -12.953125 C 16.679688 -11.859375 15.546875 -10.539062 14.171875 -9 C 12.804688 -7.457031 11.578125 -6.171875 10.484375 -5.140625 C 8.972656 -3.765625 7.53125 -2.546875 6.15625 -1.484375 C 4.789062 -0.421875 3.351562 0.109375 1.84375 0.109375 Z M 1.84375 0.109375 "/></g></g></g><g fill="#372200" fill-opacity="1"><g transform="translate(96.229332, 87.473606)"><g><path d="M 2.875 0.3125 C -0.550781 0.3125 -2.265625 -1.265625 -2.265625 -4.421875 C -2.265625 -5.453125 -2.023438 -6.648438 -1.546875 -8.015625 C -1.066406 -9.390625 -0.175781 -11.207031 1.125 -13.46875 C 2.90625 -16.550781 5.421875 -20.179688 8.671875 -24.359375 C 11.929688 -28.535156 15.414062 -32.613281 19.125 -36.59375 C 22.34375 -40.21875 25.851562 -43.554688 29.65625 -46.609375 C 33.457031 -49.660156 37.414062 -51.769531 41.53125 -52.9375 C 42.144531 -53.132812 42.863281 -53.300781 43.6875 -53.4375 C 44.507812 -53.582031 45.363281 -53.65625 46.25 -53.65625 C 47.894531 -53.65625 49.300781 -53.414062 50.46875 -52.9375 C 51.007812 -52.65625 51.554688 -52.289062 52.109375 -51.84375 C 52.660156 -51.40625 53.035156 -50.773438 53.234375 -49.953125 C 52.484375 -50.566406 51.628906 -51.023438 50.671875 -51.328125 C 49.710938 -51.640625 48.546875 -51.796875 47.171875 -51.796875 C 43.609375 -51.796875 40.179688 -50.628906 36.890625 -48.296875 C 33.609375 -45.972656 30.335938 -42.976562 27.078125 -39.3125 C 23.828125 -35.644531 20.421875 -31.753906 16.859375 -27.640625 C 15.484375 -26.066406 13.972656 -24.113281 12.328125 -21.78125 C 10.679688 -19.457031 9.125 -17.128906 7.65625 -14.796875 C 6.1875 -12.472656 5.003906 -10.488281 4.109375 -8.84375 C 3.628906 -8.082031 3.269531 -7.273438 3.03125 -6.421875 C 2.789062 -5.566406 2.671875 -4.863281 2.671875 -4.3125 C 2.671875 -2.664062 3.285156 -1.84375 4.515625 -1.84375 C 5.816406 -1.84375 7.273438 -2.457031 8.890625 -3.6875 C 10.503906 -4.925781 12.046875 -6.300781 13.515625 -7.8125 C 14.984375 -9.320312 16.097656 -10.519531 16.859375 -11.40625 C 17.128906 -11.40625 17.265625 -11.203125 17.265625 -10.796875 C 17.265625 -10.171875 17.128906 -9.691406 16.859375 -9.359375 C 14.117188 -6.203125 11.597656 -3.800781 9.296875 -2.15625 C 7.003906 -0.507812 4.863281 0.3125 2.875 0.3125 Z M 2.875 0.3125 "/></g></g></g><g fill="#372200" fill-opacity="1"><g transform="translate(113.086645, 87.473606)"><g><path d="M 2.875 0.3125 C -0.550781 0.3125 -2.265625 -1.265625 -2.265625 -4.421875 C -2.265625 -5.453125 -2.023438 -6.648438 -1.546875 -8.015625 C -1.066406 -9.390625 -0.175781 -11.207031 1.125 -13.46875 C 2.90625 -16.550781 5.421875 -20.179688 8.671875 -24.359375 C 11.929688 -28.535156 15.414062 -32.613281 19.125 -36.59375 C 22.34375 -40.21875 25.851562 -43.554688 29.65625 -46.609375 C 33.457031 -49.660156 37.414062 -51.769531 41.53125 -52.9375 C 42.144531 -53.132812 42.863281 -53.300781 43.6875 -53.4375 C 44.507812 -53.582031 45.363281 -53.65625 46.25 -53.65625 C 47.894531 -53.65625 49.300781 -53.414062 50.46875 -52.9375 C 51.007812 -52.65625 51.554688 -52.289062 52.109375 -51.84375 C 52.660156 -51.40625 53.035156 -50.773438 53.234375 -49.953125 C 52.484375 -50.566406 51.628906 -51.023438 50.671875 -51.328125 C 49.710938 -51.640625 48.546875 -51.796875 47.171875 -51.796875 C 43.609375 -51.796875 40.179688 -50.628906 36.890625 -48.296875 C 33.609375 -45.972656 30.335938 -42.976562 27.078125 -39.3125 C 23.828125 -35.644531 20.421875 -31.753906 16.859375 -27.640625 C 15.484375 -26.066406 13.972656 -24.113281 12.328125 -21.78125 C 10.679688 -19.457031 9.125 -17.128906 7.65625 -14.796875 C 6.1875 -12.472656 5.003906 -10.488281 4.109375 -8.84375 C 3.628906 -8.082031 3.269531 -7.273438 3.03125 -6.421875 C 2.789062 -5.566406 2.671875 -4.863281 2.671875 -4.3125 C 2.671875 -2.664062 3.285156 -1.84375 4.515625 -1.84375 C 5.816406 -1.84375 7.273438 -2.457031 8.890625 -3.6875 C 10.503906 -4.925781 12.046875 -6.300781 13.515625 -7.8125 C 14.984375 -9.320312 16.097656 -10.519531 16.859375 -11.40625 C 17.128906 -11.40625 17.265625 -11.203125 17.265625 -10.796875 C 17.265625 -10.171875 17.128906 -9.691406 16.859375 -9.359375 C 14.117188 -6.203125 11.597656 -3.800781 9.296875 -2.15625 C 7.003906 -0.507812 4.863281 0.3125 2.875 0.3125 Z M 2.875 0.3125 "/></g></g></g><g fill="#372200" fill-opacity="1"><g transform="translate(129.943958, 87.473606)"><g><path d="M 7.8125 0.71875 C 4.65625 0.71875 2.425781 0.0351562 1.125 -1.328125 C -0.175781 -2.703125 -0.828125 -4.554688 -0.828125 -6.890625 C -0.828125 -9.148438 -0.191406 -11.53125 1.078125 -14.03125 C 2.347656 -16.53125 3.941406 -18.910156 5.859375 -21.171875 C 7.023438 -22.546875 8.460938 -23.984375 10.171875 -25.484375 C 11.890625 -26.992188 13.738281 -28.414062 15.71875 -29.75 C 17.707031 -31.09375 19.675781 -32.191406 21.625 -33.046875 C 23.582031 -33.898438 25.316406 -34.328125 26.828125 -34.328125 C 27.648438 -34.328125 28.398438 -34.140625 29.078125 -33.765625 C 29.765625 -33.390625 30.109375 -32.582031 30.109375 -31.34375 C 30.109375 -29.632812 29.285156 -28.007812 27.640625 -26.46875 C 26.003906 -24.925781 24.15625 -23.503906 22.09375 -22.203125 C 19.769531 -20.691406 17.335938 -19.421875 14.796875 -18.390625 C 12.265625 -17.367188 10.070312 -16.582031 8.21875 -16.03125 C 7.195312 -14.382812 6.375 -12.703125 5.75 -10.984375 C 5.132812 -9.273438 4.828125 -7.601562 4.828125 -5.96875 C 4.828125 -4.175781 5.253906 -2.957031 6.109375 -2.3125 C 6.972656 -1.664062 7.984375 -1.34375 9.140625 -1.34375 C 11.265625 -1.34375 13.203125 -1.835938 14.953125 -2.828125 C 16.703125 -3.816406 18.328125 -5.097656 19.828125 -6.671875 C 21.335938 -8.253906 22.78125 -9.832031 24.15625 -11.40625 C 24.425781 -11.40625 24.5625 -11.203125 24.5625 -10.796875 C 24.5625 -10.171875 24.425781 -9.691406 24.15625 -9.359375 C 22.78125 -7.773438 21.285156 -6.195312 19.671875 -4.625 C 18.066406 -3.050781 16.304688 -1.765625 14.390625 -0.765625 C 12.472656 0.222656 10.28125 0.71875 7.8125 0.71875 Z M 9.453125 -17.46875 C 11.234375 -18.082031 13.335938 -18.9375 15.765625 -20.03125 C 18.203125 -21.132812 20.347656 -22.335938 22.203125 -23.640625 C 22.609375 -23.910156 23.328125 -24.472656 24.359375 -25.328125 C 25.390625 -26.191406 26.347656 -27.15625 27.234375 -28.21875 C 28.128906 -29.28125 28.578125 -30.222656 28.578125 -31.046875 C 28.578125 -32.140625 28.023438 -32.6875 26.921875 -32.6875 C 25.765625 -32.6875 24.445312 -32.171875 22.96875 -31.140625 C 21.5 -30.109375 20.316406 -29.21875 19.421875 -28.46875 C 17.773438 -26.957031 16.0625 -25.273438 14.28125 -23.421875 C 12.5 -21.578125 10.890625 -19.59375 9.453125 -17.46875 Z M 9.453125 -17.46875 "/></g></g></g><g fill="#372200" fill-opacity="1"><g transform="translate(154.09925, 87.473606)"><g><path d="M 12.328125 0.203125 C 10.617188 0.203125 9.40625 -0.238281 8.6875 -1.125 C 7.96875 -2.019531 7.609375 -3.117188 7.609375 -4.421875 C 7.609375 -5.242188 7.710938 -6.066406 7.921875 -6.890625 C 8.328125 -8.941406 9.351562 -11.097656 11 -13.359375 C 12.644531 -15.617188 14.597656 -17.878906 16.859375 -20.140625 C 19.117188 -22.398438 21.429688 -24.457031 23.796875 -26.3125 C 26.160156 -28.164062 28.265625 -29.707031 30.109375 -30.9375 C 29.285156 -30.800781 28.222656 -30.734375 26.921875 -30.734375 C 25.421875 -30.734375 23.847656 -30.816406 22.203125 -30.984375 C 20.554688 -31.160156 19.425781 -31.453125 18.8125 -31.859375 C 18.53125 -31.378906 17.859375 -30.472656 16.796875 -29.140625 C 15.742188 -27.804688 14.445312 -26.210938 12.90625 -24.359375 C 11.363281 -22.503906 9.769531 -20.617188 8.125 -18.703125 C 6.476562 -16.785156 4.9375 -14.988281 3.5 -13.3125 C 2.0625 -11.632812 0.894531 -10.316406 0 -9.359375 C -0.894531 -8.328125 -2.113281 -7.109375 -3.65625 -5.703125 C -5.195312 -4.296875 -6.738281 -3.046875 -8.28125 -1.953125 C -9.820312 -0.859375 -11.101562 -0.3125 -12.125 -0.3125 C -12.601562 -0.3125 -12.894531 -0.410156 -13 -0.609375 C -13.101562 -0.816406 -13.15625 -0.957031 -13.15625 -1.03125 C -12.0625 -1.03125 -10.429688 -1.800781 -8.265625 -3.34375 C -6.109375 -4.882812 -3.351562 -7.570312 0 -11.40625 C 4.039062 -16.0625 7.859375 -21.078125 11.453125 -26.453125 C 15.054688 -31.835938 18.296875 -37.441406 21.171875 -43.265625 L 21.28125 -43.265625 C 22.164062 -43.265625 22.609375 -42.410156 22.609375 -40.703125 C 22.609375 -39.128906 22.0625 -37.28125 20.96875 -35.15625 C 20.695312 -34.675781 20.285156 -34.023438 19.734375 -33.203125 C 21.109375 -32.921875 22.476562 -32.726562 23.84375 -32.625 C 25.21875 -32.53125 26.484375 -32.484375 27.640625 -32.484375 C 28.609375 -32.484375 29.5 -32.515625 30.3125 -32.578125 C 31.132812 -32.648438 31.785156 -32.753906 32.265625 -32.890625 C 32.890625 -32.890625 33.21875 -32.769531 33.25 -32.53125 C 33.28125 -32.289062 33.226562 -32.101562 33.09375 -31.96875 C 32.820312 -31.6875 32.253906 -31.066406 31.390625 -30.109375 C 30.535156 -29.148438 29.578125 -28.101562 28.515625 -26.96875 C 27.453125 -25.84375 26.472656 -24.78125 25.578125 -23.78125 C 24.691406 -22.789062 24.046875 -22.054688 23.640625 -21.578125 C 21.515625 -19.046875 19.40625 -16.269531 17.3125 -13.25 C 15.226562 -10.238281 13.773438 -7.535156 12.953125 -5.140625 C 12.679688 -4.523438 12.546875 -3.941406 12.546875 -3.390625 C 12.546875 -2.429688 12.988281 -1.953125 13.875 -1.953125 C 14.832031 -1.953125 16.03125 -2.515625 17.46875 -3.640625 C 18.90625 -4.773438 20.359375 -6.09375 21.828125 -7.59375 C 23.304688 -9.101562 24.492188 -10.375 25.390625 -11.40625 C 25.660156 -11.40625 25.796875 -11.203125 25.796875 -10.796875 C 25.796875 -10.171875 25.660156 -9.691406 25.390625 -9.359375 C 22.234375 -5.648438 19.675781 -3.128906 17.71875 -1.796875 C 15.769531 -0.460938 13.972656 0.203125 12.328125 0.203125 Z M 12.328125 0.203125 "/></g></g></g><g fill="#372200" fill-opacity="1"><g transform="translate(179.488002, 87.473606)"><g><path d="M 25.59375 -38.640625 C 24.21875 -38.640625 23.53125 -39.191406 23.53125 -40.296875 C 23.53125 -40.628906 23.632812 -41.003906 23.84375 -41.421875 C 24.1875 -42.242188 24.785156 -42.976562 25.640625 -43.625 C 26.492188 -44.28125 27.332031 -44.609375 28.15625 -44.609375 C 29.457031 -44.609375 30.109375 -44.0625 30.109375 -42.96875 C 30.109375 -41.9375 29.628906 -40.972656 28.671875 -40.078125 C 27.710938 -39.191406 26.6875 -38.710938 25.59375 -38.640625 Z M 3.28125 0.203125 C 1.4375 0.203125 0.125 -0.289062 -0.65625 -1.28125 C -1.445312 -2.28125 -1.84375 -3.53125 -1.84375 -5.03125 C -1.84375 -7.019531 -1.242188 -9.160156 -0.046875 -11.453125 C 1.148438 -13.753906 2.640625 -16.050781 4.421875 -18.34375 C 6.203125 -20.644531 8.015625 -22.804688 9.859375 -24.828125 C 11.710938 -26.847656 13.328125 -28.507812 14.703125 -29.8125 C 16.003906 -31.113281 17.335938 -32.070312 18.703125 -32.6875 C 20.078125 -33.300781 21.257812 -33.726562 22.25 -33.96875 C 23.25 -34.207031 23.75 -34.328125 23.75 -34.328125 C 22.238281 -32.617188 20.179688 -30.1875 17.578125 -27.03125 C 14.972656 -23.875 12.398438 -20.515625 9.859375 -16.953125 C 9.660156 -16.679688 9.179688 -16 8.421875 -14.90625 C 7.671875 -13.8125 6.832031 -12.539062 5.90625 -11.09375 C 4.976562 -9.65625 4.1875 -8.25 3.53125 -6.875 C 2.882812 -5.507812 2.5625 -4.414062 2.5625 -3.59375 C 2.5625 -2.289062 3.25 -1.640625 4.625 -1.640625 C 5.65625 -1.640625 6.769531 -2.015625 7.96875 -2.765625 C 9.164062 -3.523438 10.378906 -4.453125 11.609375 -5.546875 C 12.847656 -6.640625 13.960938 -7.71875 14.953125 -8.78125 C 15.941406 -9.84375 16.710938 -10.71875 17.265625 -11.40625 C 17.535156 -11.40625 17.671875 -11.203125 17.671875 -10.796875 C 17.671875 -10.171875 17.535156 -9.691406 17.265625 -9.359375 C 14.660156 -6.335938 12.3125 -3.988281 10.21875 -2.3125 C 8.132812 -0.632812 5.820312 0.203125 3.28125 0.203125 Z M 3.28125 0.203125 "/></g></g></g><g clip-path="url(#32976c7015)"><g fill="#372200" fill-opacity="1"><g transform="translate(196.756465, 87.473606)"><g><path d="M 1.84375 0.109375 C -0.6875 0.109375 -1.953125 -1.332031 -1.953125 -4.21875 C -1.953125 -5.863281 -1.472656 -7.832031 -0.515625 -10.125 C 0.441406 -12.414062 1.878906 -14.832031 3.796875 -17.375 C 5.171875 -19.082031 6.847656 -20.910156 8.828125 -22.859375 C 10.816406 -24.816406 12.992188 -26.6875 15.359375 -28.46875 C 17.722656 -30.25 20.140625 -31.703125 22.609375 -32.828125 C 25.078125 -33.960938 27.476562 -34.53125 29.8125 -34.53125 C 30.832031 -34.53125 31.546875 -34.375 31.953125 -34.0625 C 32.367188 -33.757812 32.644531 -33.4375 32.78125 -33.09375 C 32.925781 -32.820312 32.945312 -32.613281 32.84375 -32.46875 C 32.738281 -32.332031 32.617188 -32.300781 32.484375 -32.375 C 32.203125 -32.507812 31.648438 -32.578125 30.828125 -32.578125 C 28.367188 -32.578125 25.441406 -31.394531 22.046875 -29.03125 C 18.648438 -26.664062 15.3125 -23.601562 12.03125 -19.84375 C 9.695312 -17.238281 7.773438 -14.679688 6.265625 -12.171875 C 4.765625 -9.671875 3.769531 -7.601562 3.28125 -5.96875 C 3.144531 -5.414062 3.078125 -4.929688 3.078125 -4.515625 C 3.078125 -3.554688 3.457031 -3.078125 4.21875 -3.078125 C 4.695312 -3.078125 5.347656 -3.300781 6.171875 -3.75 C 6.992188 -4.195312 8.054688 -4.96875 9.359375 -6.0625 C 11.410156 -7.84375 13.445312 -9.929688 15.46875 -12.328125 C 17.488281 -14.734375 19.492188 -17.1875 21.484375 -19.6875 C 23.472656 -22.1875 25.40625 -24.5 27.28125 -26.625 C 29.164062 -28.75 30.96875 -30.359375 32.6875 -31.453125 C 34.875 -32.890625 36.394531 -33.707031 37.25 -33.90625 C 38.113281 -34.113281 38.816406 -34.253906 39.359375 -34.328125 C 39.015625 -33.921875 38.257812 -32.960938 37.09375 -31.453125 C 35.9375 -29.941406 34.707031 -28.347656 33.40625 -26.671875 C 32.101562 -24.992188 31.039062 -23.609375 30.21875 -22.515625 C 28.988281 -20.734375 27.671875 -18.8125 26.265625 -16.75 C 24.859375 -14.695312 23.585938 -12.757812 22.453125 -10.9375 C 21.328125 -9.125 20.554688 -7.632812 20.140625 -6.46875 C 19.796875 -5.3125 19.625 -4.457031 19.625 -3.90625 C 19.625 -2.8125 20.070312 -2.265625 20.96875 -2.265625 C 21.582031 -2.265625 22.316406 -2.519531 23.171875 -3.03125 C 24.035156 -3.539062 24.910156 -4.140625 25.796875 -4.828125 C 26.960938 -5.785156 28.054688 -6.796875 29.078125 -7.859375 C 30.109375 -8.921875 31.171875 -10.101562 32.265625 -11.40625 C 32.546875 -11.40625 32.6875 -11.203125 32.6875 -10.796875 C 32.6875 -10.171875 32.546875 -9.691406 32.265625 -9.359375 C 31.378906 -8.328125 30.300781 -7.191406 29.03125 -5.953125 C 27.769531 -4.722656 26.519531 -3.628906 25.28125 -2.671875 C 24.394531 -1.921875 23.367188 -1.269531 22.203125 -0.71875 C 21.035156 -0.164062 19.90625 0.109375 18.8125 0.109375 C 17.226562 0.109375 16.128906 -0.265625 15.515625 -1.015625 C 14.898438 -1.773438 14.59375 -2.738281 14.59375 -3.90625 C 14.59375 -5.28125 14.898438 -6.769531 15.515625 -8.375 C 16.128906 -9.988281 16.816406 -11.515625 17.578125 -12.953125 C 16.679688 -11.859375 15.546875 -10.539062 14.171875 -9 C 12.804688 -7.457031 11.578125 -6.171875 10.484375 -5.140625 C 8.972656 -3.765625 7.53125 -2.546875 6.15625 -1.484375 C 4.789062 -0.421875 3.351562 0.109375 1.84375 0.109375 Z M 1.84375 0.109375 "/></g></g></g></g></g></g></g><g clip-path="url(#a6e801ca57)"><g transform="matrix(1, 0, 0, 1, 226, -0.000000000000007527)"><g clip-path="url(#9836cdaf44)"><g fill="#ffffff" fill-opacity="1"><g transform="translate(2.731333, 86.579933)"><g><path d="M 11.285156 -45.890625 L 11.285156 -24.402344 L 9.761719 -24.402344 L 9.761719 -25.925781 L 16.808594 -25.925781 L 16.808594 -24.402344 L 15.480469 -25.148438 L 27.683594 -46.839844 L 29.011719 -46.09375 L 29.011719 -44.566406 L 24.910156 -44.566406 L 24.910156 -48.972656 L 34.738281 -48.972656 L 34.738281 -44.566406 L 30.503906 -44.566406 L 30.503906 -46.09375 L 31.855469 -45.386719 L 22.636719 -27.761719 L 21.285156 -28.46875 L 22.714844 -29 L 32.679688 -2.15625 L 31.25 -1.625 L 31.402344 -3.144531 L 35.417969 -2.730469 L 35.417969 1.523438 L 20.980469 1.523438 L 20.980469 -2.730469 L 24.992188 -3.144531 L 25.148438 -1.625 L 23.730469 -1.066406 L 15.257812 -22.484375 L 16.675781 -23.046875 L 16.675781 -21.519531 L 9.761719 -21.519531 L 9.761719 -23.046875 L 11.285156 -23.046875 L 11.285156 -1.625 L 9.761719 -1.625 L 9.914062 -3.144531 L 13.996094 -2.734375 L 13.996094 1.523438 L -0.304688 1.523438 L -0.304688 -2.730469 L 3.636719 -3.144531 L 3.796875 -1.625 L 2.269531 -1.625 L 2.269531 -45.890625 L 3.796875 -45.890625 L 3.675781 -44.371094 L -0.304688 -44.683594 L -0.304688 -48.972656 L 13.996094 -48.972656 L 13.996094 -44.679688 L 9.875 -44.367188 L 9.761719 -45.890625 Z M 8.234375 -47.304688 L 12.359375 -47.613281 L 12.472656 -46.09375 L 10.945312 -46.09375 L 10.945312 -47.449219 L 12.472656 -47.449219 L 12.472656 -45.921875 L 1.21875 -45.921875 L 1.21875 -47.449219 L 2.746094 -47.449219 L 2.746094 -46.09375 L 1.21875 -46.09375 L 1.339844 -47.613281 L 5.320312 -47.300781 L 5.320312 -0.253906 L 1.378906 0.160156 L 1.21875 -1.355469 L 2.746094 -1.355469 L 2.746094 0 L 1.21875 0 L 1.21875 -1.523438 L 12.472656 -1.523438 L 12.472656 0 L 10.945312 0 L 10.945312 -1.355469 L 12.472656 -1.355469 L 12.320312 0.160156 L 8.234375 -0.246094 L 8.234375 -24.570312 L 17.710938 -24.570312 L 27.308594 -0.316406 L 22.660156 0.160156 L 22.503906 -1.355469 L 24.03125 -1.355469 L 24.03125 0 L 22.503906 0 L 22.503906 -1.523438 L 33.890625 -1.523438 L 33.890625 0 L 32.367188 0 L 32.367188 -1.355469 L 33.890625 -1.355469 L 33.734375 0.160156 L 30.148438 -0.207031 L 19.617188 -28.574219 L 29.578125 -47.617188 L 33.214844 -47.617188 L 33.214844 -46.09375 L 31.6875 -46.09375 L 31.6875 -47.449219 L 33.214844 -47.449219 L 33.214844 -45.921875 L 26.4375 -45.921875 L 26.4375 -47.449219 L 27.960938 -47.449219 L 27.960938 -46.09375 L 26.4375 -46.09375 L 26.4375 -47.617188 L 31.621094 -47.617188 L 17.703125 -22.878906 L 8.234375 -22.878906 Z M 8.234375 -47.304688 "/></g></g></g><g fill="#ffffff" fill-opacity="1"><g transform="translate(37.84345, 86.579933)"><g><path d="M 15.863281 -48.972656 L 21.953125 -48.972656 L 32.871094 -1.972656 L 31.382812 -1.625 L 31.539062 -3.144531 L 35.550781 -2.730469 L 35.550781 1.523438 L 21.25 1.523438 L 21.25 -2.730469 L 25.261719 -3.144531 L 25.417969 -1.625 L 23.933594 -1.28125 L 20.476562 -16.195312 L 21.960938 -16.539062 L 21.960938 -15.015625 L 8.8125 -15.015625 L 8.8125 -16.539062 L 10.296875 -16.191406 L 6.773438 -1.144531 L 5.289062 -1.492188 L 5.367188 -3.015625 L 9.386719 -2.800781 L 9.386719 1.523438 L -0.304688 1.523438 L -0.304688 -2.800781 L 3.714844 -3.015625 L 3.796875 -1.492188 L 2.3125 -1.835938 L 13.296875 -48.972656 Z M 15.863281 -45.921875 L 14.503906 -45.921875 L 14.503906 -47.449219 L 15.992188 -47.101562 L 5.019531 -0.0273438 L 1.300781 0.167969 L 1.21875 -1.355469 L 2.746094 -1.355469 L 2.746094 0 L 1.21875 0 L 1.21875 -1.523438 L 7.863281 -1.523438 L 7.863281 0 L 6.335938 0 L 6.335938 -1.355469 L 7.863281 -1.355469 L 7.78125 0.167969 L 3.386719 -0.0625 L 7.601562 -18.0625 L 23.175781 -18.0625 L 27.296875 -0.285156 L 22.929688 0.160156 L 22.773438 -1.355469 L 24.300781 -1.355469 L 24.300781 0 L 22.773438 0 L 22.773438 -1.523438 L 34.027344 -1.523438 L 34.027344 0 L 32.503906 0 L 32.503906 -1.355469 L 34.027344 -1.355469 L 33.871094 0.160156 L 30.144531 -0.222656 L 19.257812 -47.105469 L 20.742188 -47.449219 L 20.742188 -45.921875 Z M 16.871094 -44.171875 L 16.601562 -43.492188 L 15.183594 -44.058594 L 16.667969 -43.71875 L 10.636719 -17.550781 L 9.152344 -17.894531 L 9.152344 -19.421875 L 21.625 -19.421875 L 21.625 -17.894531 L 20.136719 -17.550781 L 14.097656 -43.738281 L 13.960938 -44.4375 L 15.453125 -44.738281 Z M 15.945312 -50.066406 L 17.085938 -44.359375 L 15.589844 -44.058594 L 17.078125 -44.402344 L 23.539062 -16.371094 L 7.234375 -16.371094 L 13.722656 -44.515625 L 14.039062 -45.304688 Z M 15.945312 -50.066406 "/></g></g></g><g fill="#ffffff" fill-opacity="1"><g transform="translate(73.091125, 86.579933)"><g><path d="M -0.304688 -46.09375 L -0.304688 -48.972656 L 11.273438 -48.972656 L 23.683594 -11.1875 L 23.949219 -10.378906 L 22.503906 -9.894531 L 21.039062 -10.316406 L 21.316406 -11.292969 L 33.597656 -48.972656 L 45.042969 -48.972656 L 45.042969 -44.679688 L 40.921875 -44.367188 L 40.804688 -45.890625 L 42.332031 -45.890625 L 42.332031 -1.625 L 40.804688 -1.625 L 40.957031 -3.144531 L 45.042969 -2.734375 L 45.042969 1.523438 L 30.875 1.523438 L 30.875 -2.730469 L 34.816406 -3.144531 L 34.976562 -1.625 L 33.453125 -1.625 L 33.453125 -43.652344 L 34.976562 -43.652344 L 36.429688 -43.191406 L 22.265625 1.523438 L 18.277344 1.523438 L 3.699219 -43.316406 L 5.152344 -43.789062 L 6.675781 -43.789062 L 6.675781 -1.492188 L 5.152344 -1.492188 L 5.226562 -3.015625 L 9.386719 -2.804688 L 9.386719 1.523438 L -0.304688 1.523438 L -0.304688 -2.800781 L 3.714844 -3.015625 L 3.796875 -1.492188 L 2.269531 -1.492188 L 2.269531 -46.09375 L 3.796875 -46.09375 L 3.796875 -44.566406 L -0.304688 -44.566406 Z M 2.746094 -46.09375 L 1.21875 -46.09375 L 1.21875 -47.617188 L 5.320312 -47.617188 L 5.320312 -0.0429688 L 1.300781 0.167969 L 1.21875 -1.355469 L 2.746094 -1.355469 L 2.746094 0 L 1.21875 0 L 1.21875 -1.523438 L 7.863281 -1.523438 L 7.863281 0 L 6.335938 0 L 6.335938 -1.355469 L 7.863281 -1.355469 L 7.785156 0.167969 L 3.625 -0.0390625 L 3.625 -43.789062 L 6.601562 -44.261719 L 20.835938 -0.472656 L 19.386719 0 L 19.386719 -1.523438 L 21.148438 -1.523438 L 21.148438 0 L 19.695312 -0.460938 L 33.523438 -44.113281 L 36.5 -43.652344 L 36.5 -0.253906 L 32.558594 0.160156 L 32.402344 -1.355469 L 33.925781 -1.355469 L 33.925781 0 L 32.402344 0 L 32.402344 -1.523438 L 43.515625 -1.523438 L 43.515625 0 L 41.992188 0 L 41.992188 -1.355469 L 43.515625 -1.355469 L 43.367188 0.160156 L 39.28125 -0.246094 L 39.28125 -47.304688 L 43.402344 -47.613281 L 43.515625 -46.09375 L 41.992188 -46.09375 L 41.992188 -47.449219 L 43.515625 -47.449219 L 43.515625 -45.921875 L 34.707031 -45.921875 L 34.707031 -47.449219 L 36.15625 -46.976562 L 24.226562 -10.371094 L 22.773438 -10.84375 L 24.242188 -10.425781 L 22.617188 -4.738281 L 20.785156 -10.234375 L 8.71875 -46.972656 L 10.167969 -47.449219 L 10.167969 -45.921875 L 1.21875 -45.921875 L 1.21875 -47.449219 L 2.746094 -47.449219 Z M 2.746094 -46.09375 "/></g></g></g><g fill="#ffffff" fill-opacity="1"><g transform="translate(117.421859, 86.579933)"><g><path d="M 6.914062 -48.972656 L 29.585938 -48.972656 L 29.585938 -37.519531 L 25.558594 -37.519531 L 22.183594 -45.5 L 23.589844 -46.09375 L 23.589844 -44.566406 L 9.761719 -44.566406 L 9.761719 -46.09375 L 11.285156 -46.09375 L 11.285156 -24.402344 L 9.761719 -24.402344 L 9.761719 -25.925781 L 21.691406 -25.925781 L 21.691406 -24.402344 L 20.164062 -24.402344 L 20.164062 -29.316406 L 24.570312 -29.316406 L 24.570312 -18.132812 L 20.164062 -18.132812 L 20.164062 -23.046875 L 21.691406 -23.046875 L 21.691406 -21.519531 L 9.761719 -21.519531 L 9.761719 -23.046875 L 11.285156 -23.046875 L 11.285156 -1.355469 L 9.761719 -1.355469 L 9.761719 -2.878906 L 23.589844 -2.878906 L 23.589844 -1.355469 L 22.183594 -1.949219 L 25.558594 -9.929688 L 29.585938 -9.929688 L 29.585938 1.523438 L -0.304688 1.523438 L -0.304688 -2.730469 L 3.636719 -3.144531 L 3.796875 -1.625 L 2.269531 -1.625 L 2.269531 -45.890625 L 3.796875 -45.890625 L 3.675781 -44.371094 L -0.304688 -44.683594 L -0.304688 -48.972656 Z M 6.914062 -45.921875 L 1.21875 -45.921875 L 1.21875 -47.449219 L 2.746094 -47.449219 L 2.746094 -46.09375 L 1.21875 -46.09375 L 1.339844 -47.613281 L 5.320312 -47.300781 L 5.320312 -0.253906 L 1.378906 0.160156 L 1.21875 -1.355469 L 2.746094 -1.355469 L 2.746094 0 L 1.21875 0 L 1.21875 -1.523438 L 28.0625 -1.523438 L 28.0625 0 L 26.539062 0 L 26.539062 -8.40625 L 28.0625 -8.40625 L 28.0625 -6.878906 L 26.570312 -6.878906 L 26.570312 -8.40625 L 27.976562 -7.8125 L 24.597656 0.167969 L 8.234375 0.167969 L 8.234375 -24.570312 L 23.214844 -24.570312 L 23.214844 -19.65625 L 21.691406 -19.65625 L 21.691406 -21.183594 L 23.046875 -21.183594 L 23.046875 -19.65625 L 21.519531 -19.65625 L 21.519531 -27.792969 L 23.046875 -27.792969 L 23.046875 -26.265625 L 21.691406 -26.265625 L 21.691406 -27.792969 L 23.214844 -27.792969 L 23.214844 -22.878906 L 8.234375 -22.878906 L 8.234375 -47.617188 L 24.597656 -47.617188 L 27.976562 -39.636719 L 26.570312 -39.042969 L 26.570312 -40.570312 L 28.0625 -40.570312 L 28.0625 -39.042969 L 26.539062 -39.042969 L 26.539062 -47.449219 L 28.0625 -47.449219 L 28.0625 -45.921875 Z M 6.914062 -45.921875 "/></g></g></g><g fill="#ffffff" fill-opacity="1"><g transform="translate(147.789094, 86.579933)"><g><path d="M -0.304688 -46.09375 L -0.304688 -48.972656 L 16.808594 -48.972656 C 21.488281 -48.972656 25.269531 -47.707031 28.152344 -45.171875 C 31.097656 -42.585938 32.570312 -38.507812 32.570312 -32.941406 C 32.570312 -29.09375 31.84375 -25.949219 30.386719 -23.519531 C 28.902344 -21.03125 26.828125 -19.253906 24.160156 -18.175781 L 23.589844 -19.589844 L 24.996094 -20.175781 L 32.453125 -2.210938 L 31.046875 -1.625 L 31.195312 -3.144531 L 35.28125 -2.734375 L 35.28125 1.523438 L 20.84375 1.523438 L 20.84375 -2.730469 L 24.785156 -3.144531 L 24.945312 -1.625 L 23.542969 -1.023438 L 16.292969 -17.832031 L 17.691406 -18.4375 L 17.691406 -16.910156 L 9.761719 -16.910156 L 9.761719 -18.4375 L 11.285156 -18.4375 L 11.285156 -1.625 L 9.761719 -1.625 L 9.914062 -3.144531 L 13.996094 -2.734375 L 13.996094 1.523438 L -0.304688 1.523438 L -0.304688 -2.734375 L 3.78125 -3.144531 L 3.929688 -1.625 L 2.40625 -1.625 L 2.40625 -45.890625 L 3.929688 -45.890625 L 3.816406 -44.367188 L -0.304688 -44.679688 Z M 2.746094 -46.09375 L 1.21875 -46.09375 L 1.335938 -47.613281 L 5.457031 -47.304688 L 5.457031 -0.246094 L 1.371094 0.160156 L 1.21875 -1.355469 L 2.746094 -1.355469 L 2.746094 0 L 1.21875 0 L 1.21875 -1.523438 L 12.472656 -1.523438 L 12.472656 0 L 10.945312 0 L 10.945312 -1.355469 L 12.472656 -1.355469 L 12.320312 0.160156 L 8.234375 -0.246094 L 8.234375 -19.960938 L 18.695312 -19.960938 L 27.167969 -0.328125 L 22.527344 0.160156 L 22.367188 -1.355469 L 23.894531 -1.355469 L 23.894531 0 L 22.367188 0 L 22.367188 -1.523438 L 33.757812 -1.523438 L 33.757812 0 L 32.230469 0 L 32.230469 -1.355469 L 33.757812 -1.355469 L 33.605469 0.160156 L 29.984375 -0.199219 L 21.589844 -20.425781 L 23.019531 -21.003906 C 25.050781 -21.824219 26.636719 -23.183594 27.769531 -25.082031 C 28.9375 -27.035156 29.519531 -29.652344 29.519531 -32.941406 C 29.519531 -37.589844 28.394531 -40.902344 26.140625 -42.878906 C 23.832031 -44.910156 20.71875 -45.921875 16.808594 -45.921875 L 1.21875 -45.921875 L 1.21875 -47.449219 L 2.746094 -47.449219 Z M 11.285156 -46.09375 L 11.285156 -19.792969 L 9.761719 -19.792969 L 9.761719 -21.316406 L 14.503906 -21.316406 C 16.339844 -21.316406 17.9375 -21.667969 19.296875 -22.371094 C 20.574219 -23.023438 21.589844 -24.15625 22.34375 -25.761719 C 23.152344 -27.476562 23.554688 -29.871094 23.554688 -32.941406 C 23.554688 -36.019531 23.160156 -38.417969 22.371094 -40.136719 C 21.636719 -41.738281 20.636719 -42.863281 19.367188 -43.515625 C 18.003906 -44.21875 16.382812 -44.566406 14.503906 -44.566406 L 9.761719 -44.566406 L 9.761719 -46.09375 Z M 8.234375 -47.617188 L 14.503906 -47.617188 C 16.875 -47.617188 18.960938 -47.15625 20.761719 -46.230469 C 22.65625 -45.253906 24.117188 -43.648438 25.144531 -41.40625 C 26.117188 -39.285156 26.605469 -36.464844 26.605469 -32.941406 C 26.605469 -29.417969 26.105469 -26.589844 25.105469 -24.464844 C 24.054688 -22.230469 22.582031 -20.628906 20.695312 -19.65625 C 18.894531 -18.730469 16.832031 -18.269531 14.503906 -18.269531 L 8.234375 -18.269531 Z M 8.234375 -47.617188 "/></g></g></g><g fill="#ffffff" fill-opacity="1"><g transform="translate(182.494504, 86.579933)"><g><path d="M 15.863281 -48.972656 L 21.953125 -48.972656 L 32.871094 -1.972656 L 31.382812 -1.625 L 31.539062 -3.144531 L 35.550781 -2.730469 L 35.550781 1.523438 L 21.25 1.523438 L 21.25 -2.730469 L 25.261719 -3.144531 L 25.417969 -1.625 L 23.933594 -1.28125 L 20.476562 -16.195312 L 21.960938 -16.539062 L 21.960938 -15.015625 L 8.8125 -15.015625 L 8.8125 -16.539062 L 10.296875 -16.191406 L 6.773438 -1.144531 L 5.289062 -1.492188 L 5.367188 -3.015625 L 9.386719 -2.800781 L 9.386719 1.523438 L -0.304688 1.523438 L -0.304688 -2.800781 L 3.714844 -3.015625 L 3.796875 -1.492188 L 2.3125 -1.835938 L 13.296875 -48.972656 Z M 15.863281 -45.921875 L 14.503906 -45.921875 L 14.503906 -47.449219 L 15.992188 -47.101562 L 5.019531 -0.0273438 L 1.300781 0.167969 L 1.21875 -1.355469 L 2.746094 -1.355469 L 2.746094 0 L 1.21875 0 L 1.21875 -1.523438 L 7.863281 -1.523438 L 7.863281 0 L 6.335938 0 L 6.335938 -1.355469 L 7.863281 -1.355469 L 7.78125 0.167969 L 3.386719 -0.0625 L 7.601562 -18.0625 L 23.175781 -18.0625 L 27.296875 -0.285156 L 22.929688 0.160156 L 22.773438 -1.355469 L 24.300781 -1.355469 L 24.300781 0 L 22.773438 0 L 22.773438 -1.523438 L 34.027344 -1.523438 L 34.027344 0 L 32.503906 0 L 32.503906 -1.355469 L 34.027344 -1.355469 L 33.871094 0.160156 L 30.144531 -0.222656 L 19.257812 -47.105469 L 20.742188 -47.449219 L 20.742188 -45.921875 Z M 16.871094 -44.171875 L 16.601562 -43.492188 L 15.183594 -44.058594 L 16.667969 -43.71875 L 10.636719 -17.550781 L 9.152344 -17.894531 L 9.152344 -19.421875 L 21.625 -19.421875 L 21.625 -17.894531 L 20.136719 -17.550781 L 14.097656 -43.738281 L 13.960938 -44.4375 L 15.453125 -44.738281 Z M 15.945312 -50.066406 L 17.085938 -44.359375 L 15.589844 -44.058594 L 17.078125 -44.402344 L 23.539062 -16.371094 L 7.234375 -16.371094 L 13.722656 -44.515625 L 14.039062 -45.304688 Z M 15.945312 -50.066406 "/></g></g></g><g fill="#372200" fill-opacity="1"><g transform="translate(2.731333, 86.579933)"><g><path d="M 9.765625 -45.890625 L 9.765625 -24.40625 L 16.8125 -24.40625 L 29.015625 -46.09375 L 26.4375 -46.09375 L 26.4375 -47.453125 L 33.21875 -47.453125 L 33.21875 -46.09375 L 30.5 -46.09375 L 21.28125 -28.46875 L 31.25 -1.625 L 33.890625 -1.359375 L 33.890625 0 L 22.5 0 L 22.5 -1.359375 L 25.140625 -1.625 L 16.671875 -23.046875 L 9.765625 -23.046875 L 9.765625 -1.625 L 12.46875 -1.359375 L 12.46875 0 L 1.21875 0 L 1.21875 -1.359375 L 3.796875 -1.625 L 3.796875 -45.890625 L 1.21875 -46.09375 L 1.21875 -47.453125 L 12.46875 -47.453125 L 12.46875 -46.09375 Z M 9.765625 -45.890625 "/></g></g></g><g fill="#372200" fill-opacity="1"><g transform="translate(37.84345, 86.579933)"><g><path d="M 15.859375 -47.453125 L 20.734375 -47.453125 L 31.375 -1.625 L 34.03125 -1.359375 L 34.03125 0 L 22.78125 0 L 22.78125 -1.359375 L 25.421875 -1.625 L 21.96875 -16.53125 L 8.8125 -16.53125 L 5.28125 -1.484375 L 7.859375 -1.359375 L 7.859375 0 L 1.21875 0 L 1.21875 -1.359375 L 3.796875 -1.484375 L 14.5 -47.453125 Z M 15.453125 -44.734375 L 15.1875 -44.0625 L 9.15625 -17.890625 L 21.625 -17.890625 L 15.59375 -44.0625 Z M 15.453125 -44.734375 "/></g></g></g><g fill="#372200" fill-opacity="1"><g transform="translate(73.091125, 86.579933)"><g><path d="M 1.21875 -46.09375 L 1.21875 -47.453125 L 10.171875 -47.453125 L 22.234375 -10.703125 L 22.5 -9.890625 L 22.78125 -10.84375 L 34.703125 -47.453125 L 43.515625 -47.453125 L 43.515625 -46.09375 L 40.796875 -45.890625 L 40.796875 -1.625 L 43.515625 -1.359375 L 43.515625 0 L 32.40625 0 L 32.40625 -1.359375 L 34.96875 -1.625 L 34.96875 -43.65625 L 21.140625 0 L 19.390625 0 L 5.15625 -43.78125 L 5.15625 -1.484375 L 7.859375 -1.359375 L 7.859375 0 L 1.21875 0 L 1.21875 -1.359375 L 3.796875 -1.484375 L 3.796875 -46.09375 Z M 1.21875 -46.09375 "/></g></g></g><g fill="#372200" fill-opacity="1"><g transform="translate(117.421859, 86.579933)"><g><path d="M 6.90625 -47.453125 L 28.0625 -47.453125 L 28.0625 -39.046875 L 26.5625 -39.046875 L 23.59375 -46.09375 L 9.765625 -46.09375 L 9.765625 -24.40625 L 21.6875 -24.40625 L 21.6875 -27.796875 L 23.046875 -27.796875 L 23.046875 -19.65625 L 21.6875 -19.65625 L 21.6875 -23.046875 L 9.765625 -23.046875 L 9.765625 -1.359375 L 23.59375 -1.359375 L 26.5625 -8.40625 L 28.0625 -8.40625 L 28.0625 0 L 1.21875 0 L 1.21875 -1.359375 L 3.796875 -1.625 L 3.796875 -45.890625 L 1.21875 -46.09375 L 1.21875 -47.453125 Z M 6.90625 -47.453125 "/></g></g></g><g fill="#372200" fill-opacity="1"><g transform="translate(147.789094, 86.579933)"><g><path d="M 1.21875 -46.09375 L 1.21875 -47.453125 L 16.8125 -47.453125 C 21.101562 -47.453125 24.546875 -46.304688 27.140625 -44.015625 C 29.742188 -41.734375 31.046875 -38.039062 31.046875 -32.9375 C 31.046875 -29.375 30.390625 -26.492188 29.078125 -24.296875 C 27.765625 -22.109375 25.9375 -20.539062 23.59375 -19.59375 L 31.046875 -1.625 L 33.75 -1.359375 L 33.75 0 L 22.375 0 L 22.375 -1.359375 L 24.9375 -1.625 L 17.6875 -18.4375 L 9.765625 -18.4375 L 9.765625 -1.625 L 12.46875 -1.359375 L 12.46875 0 L 1.21875 0 L 1.21875 -1.359375 L 3.9375 -1.625 L 3.9375 -45.890625 Z M 9.765625 -46.09375 L 9.765625 -19.796875 L 14.5 -19.796875 C 16.582031 -19.796875 18.414062 -20.203125 20 -21.015625 C 21.582031 -21.828125 22.820312 -23.191406 23.71875 -25.109375 C 24.625 -27.035156 25.078125 -29.644531 25.078125 -32.9375 C 25.078125 -36.238281 24.632812 -38.847656 23.75 -40.765625 C 22.875 -42.691406 21.644531 -44.0625 20.0625 -44.875 C 18.476562 -45.6875 16.625 -46.09375 14.5 -46.09375 Z M 9.765625 -46.09375 "/></g></g></g><g fill="#372200" fill-opacity="1"><g transform="translate(182.494504, 86.579933)"><g><path d="M 15.859375 -47.453125 L 20.734375 -47.453125 L 31.375 -1.625 L 34.03125 -1.359375 L 34.03125 0 L 22.78125 0 L 22.78125 -1.359375 L 25.421875 -1.625 L 21.96875 -16.53125 L 8.8125 -16.53125 L 5.28125 -1.484375 L 7.859375 -1.359375 L 7.859375 0 L 1.21875 0 L 1.21875 -1.359375 L 3.796875 -1.484375 L 14.5 -47.453125 Z M 15.453125 -44.734375 L 15.1875 -44.0625 L 9.15625 -17.890625 L 21.625 -17.890625 L 15.59375 -44.0625 Z M 15.453125 -44.734375 "/></g></g></g></g></g></g><g clip-path="url(#3d8875b1c2)"><g clip-path="url(#59036cce99)"><g clip-path="url(#d234a0335f)"><g transform="matrix(1, 0, 0, 1, 189, 31)"><g clip-path="url(#d5ceed7ae6)"><g clip-path="url(#21acb105f7)"><g clip-path="url(#f1fa0ca9ec)"><g clip-path="url(#f61fbe433b)"><path fill="#372200" d="M -0.0117188 1.929688 L 32.683594 -0.257812 L 35.003906 34.355469 L 2.304688 36.546875 Z M -0.0117188 1.929688 " fill-opacity="1" fill-rule="nonzero"/></g></g></g></g></g></g></g></g></g></g></svg>