<svg xmlns="http://www.w3.org/2000/svg" xmlns:xlink="http://www.w3.org/1999/xlink" width="940" zoomAndPan="magnify" viewBox="0 0 705 591.000005" height="788" preserveAspectRatio="xMidYMid meet" version="1.0"><defs><g/><clipPath id="1b2effc083"><path d="M 0.59375 0 L 704.402344 0 L 704.402344 590 L 0.59375 590 Z M 0.59375 0 " clip-rule="nonzero"/></clipPath><clipPath id="b1052c2c9c"><path d="M 419 129 L 565 129 L 565 279 L 419 279 Z M 419 129 " clip-rule="nonzero"/></clipPath><clipPath id="88cba2b0a1"><path d="M 416.109375 133.957031 L 558.078125 124.457031 L 568.101562 274.1875 L 426.132812 283.691406 Z M 416.109375 133.957031 " clip-rule="nonzero"/></clipPath><clipPath id="f6c0830411"><path d="M 487.09375 129.207031 L 496.410156 186.449219 L 532 140.460938 L 505.859375 192.398438 L 561.53125 176.054688 L 509.828125 202.550781 L 564.621094 222.195312 L 507.265625 213.417969 L 540.097656 261.40625 L 498.675781 220.300781 L 497.089844 278.546875 L 487.757812 221.03125 L 452.183594 267.292969 L 478.328125 215.355469 L 422.652344 231.699219 L 474.335938 204.929688 L 419.566406 185.558594 L 476.917969 194.335938 L 444.089844 146.347656 L 485.492188 187.179688 Z M 487.09375 129.207031 " clip-rule="nonzero"/></clipPath><clipPath id="8f2518e069"><path d="M 0.40625 0.140625 L 145.839844 0.140625 L 145.839844 149.648438 L 0.40625 149.648438 Z M 0.40625 0.140625 " clip-rule="nonzero"/></clipPath><clipPath id="9d6eadc37d"><path d="M -2.890625 4.957031 L 139.078125 -4.542969 L 149.101562 145.1875 L 7.132812 154.691406 Z M -2.890625 4.957031 " clip-rule="nonzero"/></clipPath><clipPath id="363d0ba532"><path d="M 68.09375 0.207031 L 77.410156 57.449219 L 113 11.460938 L 86.859375 63.398438 L 142.53125 47.054688 L 90.828125 73.550781 L 145.621094 93.195312 L 88.265625 84.417969 L 121.097656 132.40625 L 79.675781 91.300781 L 78.089844 149.546875 L 68.757812 92.03125 L 33.183594 138.292969 L 59.328125 86.355469 L 3.652344 102.699219 L 55.335938 75.929688 L 0.566406 56.558594 L 57.917969 65.335938 L 25.089844 17.347656 L 66.492188 58.179688 Z M 68.09375 0.207031 " clip-rule="nonzero"/></clipPath><clipPath id="1ba1c94981"><rect x="0" width="146" y="0" height="150"/></clipPath><clipPath id="1c1d94c50d"><rect x="0" width="298" y="0" height="474"/></clipPath><clipPath id="6806b6e436"><rect x="0" width="184" y="0" height="590"/></clipPath></defs><g clip-path="url(#1b2effc083)"><path fill="#ffffff" d="M 0.59375 0 L 704.40625 0 L 704.40625 590 L 0.59375 590 Z M 0.59375 0 " fill-opacity="1" fill-rule="nonzero"/><path fill="#ffffff" d="M 0.59375 0 L 704.40625 0 L 704.40625 590 L 0.59375 590 Z M 0.59375 0 " fill-opacity="1" fill-rule="nonzero"/></g><g clip-path="url(#b1052c2c9c)"><g clip-path="url(#88cba2b0a1)"><g clip-path="url(#f6c0830411)"><g transform="matrix(1, 0, 0, 1, 419, 129)"><g clip-path="url(#1ba1c94981)"><g clip-path="url(#8f2518e069)"><g clip-path="url(#9d6eadc37d)"><g clip-path="url(#363d0ba532)"><path fill="#372200" d="M -2.890625 4.957031 L 139.078125 -4.542969 L 149.136719 145.742188 L 7.171875 155.246094 Z M -2.890625 4.957031 " fill-opacity="1" fill-rule="nonzero"/></g></g></g></g></g></g></g></g><g transform="matrix(1, 0, 0, 1, 124, 58)"><g clip-path="url(#1c1d94c50d)"><g fill="#372200" fill-opacity="1"><g transform="translate(14.675329, 334.007813)"><g><path d="M 43.28125 85.765625 C 34.363281 85.765625 25.640625 84.453125 17.109375 81.828125 C 8.585938 79.203125 1.507812 74.609375 -4.125 68.046875 C -9.769531 61.492188 -12.59375 52.1875 -12.59375 40.125 C -12.59375 31.46875 -10.296875 24.320312 -5.703125 18.6875 C -1.109375 13.050781 2.628906 10.234375 5.515625 10.234375 C 6.035156 10.234375 6.554688 10.492188 7.078125 11.015625 C 4.722656 13.109375 2.820312 16.515625 1.375 21.234375 C -0.0625 25.960938 -0.78125 30.945312 -0.78125 36.1875 C -0.78125 46.945312 2.820312 56.519531 10.03125 64.90625 C 17.238281 73.300781 27.664062 77.5 41.3125 77.5 C 59.664062 77.5 76.117188 72.972656 90.671875 63.921875 C 105.234375 54.878906 118.476562 42.945312 130.40625 28.125 C 142.34375 13.3125 153.5625 -2.75 164.0625 -20.0625 C 169.039062 -28.195312 173.5625 -35.472656 177.625 -41.890625 C 181.695312 -48.316406 185.4375 -54.15625 188.84375 -59.40625 C 181.757812 -51.539062 173.5625 -43.28125 164.25 -34.625 C 154.9375 -25.96875 145.097656 -17.898438 134.734375 -10.421875 C 124.378906 -2.953125 113.757812 3.078125 102.875 7.671875 C 91.988281 12.265625 81.300781 14.5625 70.8125 14.5625 C 60.320312 14.5625 51.273438 11.410156 43.671875 5.109375 C 36.066406 -1.179688 32.265625 -12.195312 32.265625 -27.9375 C 32.265625 -42.625 35.539062 -57.242188 42.09375 -71.796875 C 48.65625 -86.359375 57.3125 -100.457031 68.0625 -114.09375 C 51.28125 -116.1875 37.507812 -120.378906 26.75 -126.671875 C 16 -132.972656 10.625 -142.15625 10.625 -154.21875 C 10.625 -162.613281 12.984375 -169.628906 17.703125 -175.265625 C 22.421875 -180.910156 28.382812 -185.4375 35.59375 -188.84375 C 42.8125 -192.25 50.550781 -194.867188 58.8125 -196.703125 C 67.070312 -198.546875 74.804688 -199.726562 82.015625 -200.25 C 89.234375 -200.769531 94.941406 -201.03125 99.140625 -201.03125 C 100.453125 -201.03125 103.535156 -200.960938 108.390625 -200.828125 C 113.242188 -200.703125 118.488281 -200.441406 124.125 -200.046875 C 129.757812 -199.660156 134.675781 -199.070312 138.875 -198.28125 C 143.070312 -197.5 145.171875 -196.582031 145.171875 -195.53125 C 145.171875 -194.476562 144.253906 -193.953125 142.421875 -193.953125 C 139.003906 -193.953125 135.195312 -194.148438 131 -194.546875 C 126.8125 -194.941406 122.617188 -195.140625 118.421875 -195.140625 C 115.273438 -195.140625 112.125 -195.140625 108.96875 -195.140625 C 105.820312 -195.140625 102.804688 -195.007812 99.921875 -194.75 C 94.679688 -194.476562 88.125 -193.882812 80.25 -192.96875 C 72.382812 -192.050781 64.582031 -190.210938 56.84375 -187.453125 C 49.113281 -184.703125 42.625 -180.640625 37.375 -175.265625 C 32.125 -169.890625 29.5 -162.613281 29.5 -153.4375 C 29.5 -143.726562 33.5 -136.1875 41.5 -130.8125 C 49.5 -125.4375 59.925781 -121.960938 72.78125 -120.390625 C 85.113281 -135.078125 99.144531 -148.648438 114.875 -161.109375 C 130.613281 -173.566406 146.675781 -184.382812 163.0625 -193.5625 C 179.457031 -202.738281 195.328125 -209.945312 210.671875 -215.1875 C 226.015625 -220.4375 239.457031 -223.0625 251 -223.0625 C 258.601562 -223.0625 265.679688 -221.6875 272.234375 -218.9375 C 278.796875 -216.1875 282.078125 -210.484375 282.078125 -201.828125 C 282.078125 -191.597656 278.078125 -182.023438 270.078125 -173.109375 C 262.078125 -164.191406 251.390625 -156.0625 238.015625 -148.71875 C 224.640625 -141.375 209.691406 -135.007812 193.171875 -129.625 C 176.648438 -124.25 159.601562 -120.117188 142.03125 -117.234375 C 124.457031 -114.347656 107.671875 -112.90625 91.671875 -112.90625 L 90.09375 -112.90625 C 78.8125 -98.488281 69.828125 -83.472656 63.140625 -67.859375 C 56.453125 -52.253906 53.109375 -37.109375 53.109375 -22.421875 C 53.109375 -11.671875 55.335938 -4.195312 59.796875 0 C 64.253906 4.195312 69.765625 6.296875 76.328125 6.296875 C 82.617188 6.296875 89.367188 4.984375 96.578125 2.359375 C 103.796875 -0.265625 110.679688 -3.476562 117.234375 -7.28125 C 123.796875 -11.082031 129.304688 -14.6875 133.765625 -18.09375 C 144.253906 -26.226562 154.414062 -34.753906 164.25 -43.671875 C 174.082031 -52.585938 182.867188 -60.976562 190.609375 -68.84375 C 198.347656 -76.71875 204.316406 -83.144531 208.515625 -88.125 C 213.753906 -94.945312 218.535156 -101.175781 222.859375 -106.8125 C 227.191406 -112.445312 232.769531 -115.265625 239.59375 -115.265625 C 244.050781 -115.265625 246.28125 -113.300781 246.28125 -109.375 C 246.28125 -106.226562 244.835938 -104 241.953125 -102.6875 C 235.398438 -102.425781 229.300781 -100.257812 223.65625 -96.1875 C 218.019531 -92.125 213.757812 -86.550781 210.875 -79.46875 C 206.675781 -69.238281 202.476562 -58.742188 198.28125 -47.984375 C 194.082031 -37.234375 189.363281 -26.484375 184.125 -15.734375 C 175.46875 2.359375 164.644531 19.140625 151.65625 34.609375 C 138.675781 50.085938 123.269531 62.484375 105.4375 71.796875 C 87.601562 81.109375 66.882812 85.765625 43.28125 85.765625 Z M 94.8125 -119.203125 C 109.238281 -119.460938 124.582031 -121.101562 140.84375 -124.125 C 157.101562 -127.144531 173.035156 -131.273438 188.640625 -136.515625 C 204.242188 -141.765625 218.40625 -147.863281 231.125 -154.8125 C 243.851562 -161.757812 254.019531 -169.363281 261.625 -177.625 C 269.226562 -185.882812 273.03125 -194.34375 273.03125 -203 C 273.03125 -209.03125 270.734375 -212.960938 266.140625 -214.796875 C 261.554688 -216.640625 256.640625 -217.5625 251.390625 -217.5625 C 240.640625 -217.5625 228.578125 -215.003906 215.203125 -209.890625 C 201.828125 -204.773438 187.988281 -197.757812 173.6875 -188.84375 C 159.394531 -179.925781 145.429688 -169.5 131.796875 -157.5625 C 118.160156 -145.632812 105.832031 -132.847656 94.8125 -119.203125 Z M 94.8125 -119.203125 "/></g></g></g></g></g><g transform="matrix(1, 0, 0, 1, 339, -0.000000000000107785)"><g clip-path="url(#6806b6e436)"><g fill="#372200" fill-opacity="1"><g transform="translate(0.924428, 425.761178)"><g><path d="M 49.484375 -232.640625 L 49.484375 -123.703125 L 85.21875 -123.703125 L 147.078125 -233.671875 L 134.015625 -233.671875 L 134.015625 -240.546875 L 168.390625 -240.546875 L 168.390625 -233.671875 L 154.640625 -233.671875 L 107.90625 -144.328125 L 158.421875 -8.25 L 171.8125 -6.875 L 171.8125 0 L 114.09375 0 L 114.09375 -6.875 L 127.484375 -8.25 L 84.53125 -116.84375 L 49.484375 -116.84375 L 49.484375 -8.25 L 63.234375 -6.875 L 63.234375 0 L 6.1875 0 L 6.1875 -6.875 L 19.25 -8.25 L 19.25 -232.640625 L 6.1875 -233.671875 L 6.1875 -240.546875 L 63.234375 -240.546875 L 63.234375 -233.671875 Z M 49.484375 -232.640625 "/></g></g></g></g></g></svg>